{
  "accessors": [
    {
      "bufferView": 2,
      "componentType": 5126,
      "count": 65532,
      "max": [
        2.14985728263855,
        2.573082208633423,
        2.093148708343506
      ],
      "min": [
        -2.140467643737793,
        0.003784910310059786,
        -2.1974222660064697
      ],
      "type": "VEC3"
    },
    {
      "bufferView": 2,
      "byteOffset": 786384,
      "componentType": 5126,
      "count": 65532,
      "max": [
        1.0,
        0.9744648337364197,
        1.0
      ],
      "min": [
        -1.0,
        -0.9999741315841675,
        -1.0
      ],
      "type": "VEC3"
    },
    {
      "bufferView": 1,
      "componentType": 5126,
      "count": 65532,
      "max": [
        0.9999507069587708,
        0.9953456521034241
      ],
      "min": [
        0.002201981609687209,
        0.004574714694172144
      ],
      "type": "VEC2"
    },
    {
      "bufferView": 0,
      "componentType": 5125,
      "count": 335559,
      "type": "SCALAR"
    },
    {
      "bufferView": 2,
      "byteOffset": 1572768,
      "componentType": 5126,
      "count": 65532,
      "max": [
        2.4522664546966553,
        2.5730817317962646,
        2.3955578804016113
      ],
      "min": [
        -2.4431231021881104,
        0.005431648343801498,
        -2.4998505115509033
      ],
      "type": "VEC3"
    },
    {
      "bufferView": 2,
      "byteOffset": 2359152,
      "componentType": 5126,
      "count": 65532,
      "max": [
        1.0,
        1.0,
        1.0
      ],
      "min": [
        -1.0,
        -1.0,
        -1.0
      ],
      "type": "VEC3"
    },
    {
      "bufferView": 1,
      "byteOffset": 524256,
      "componentType": 5126,
      "count": 65532,
      "max": [
        0.9993948340415955,
        0.9965993762016296
      ],
      "min": [
        0.004026452079415321,
        0.020714346319437027
      ],
      "type": "VEC2"
    },
    {
      "bufferView": 0,
      "byteOffset": 1342236,
      "componentType": 5125,
      "count": 338346,
      "type": "SCALAR"
    },
    {
      "bufferView": 2,
      "byteOffset": 3145536,
      "componentType": 5126,
      "count": 37724,
      "max": [
        2.4499382972717285,
        2.573082685470581,
        2.394270658493042
      ],
      "min": [
        -2.441835880279541,
        0.004012060817331076,
        -2.498544454574585
      ],
      "type": "VEC3"
    },
    {
      "bufferView": 2,
      "byteOffset": 3598224,
      "componentType": 5126,
      "count": 37724,
      "max": [
        0.9999711513519287,
        0.9999955892562866,
        0.9999704360961914
      ],
      "min": [
        -1.0,
        -0.9999819993972778,
        -1.0
      ],
      "type": "VEC3"
    },
    {
      "bufferView": 1,
      "byteOffset": 1048512,
      "componentType": 5126,
      "count": 37724,
      "max": [
        0.9944173097610474,
        0.9959846138954163
      ],
      "min": [
        0.004513415973633528,
        0.003481657709926367
      ],
      "type": "VEC2"
    },
    {
      "bufferView": 0,
      "byteOffset": 2695620,
      "componentType": 5125,
      "count": 184431,
      "type": "SCALAR"
    }
  ],
  "asset": {
    "extras": {
      "author": "VHM777 (https://sketchfab.com/gizacorp01)",
      "license": "CC-BY-4.0 (http://creativecommons.org/licenses/by/4.0/)",
      "source": "https://sketchfab.com/3d-models/royal-crown-36edb23a404349709c9da94f136351e9",
      "title": "Royal Crown"
    },
    "generator": "Sketchfab-12.67.0",
    "version": "2.0"
  },
  "bufferViews": [
    {
      "buffer": 0,
      "byteLength": 3433344,
      "name": "floatBufferViews",
      "target": 34963
    },
    {
      "buffer": 0,
      "byteLength": 1350304,
      "byteOffset": 3433344,
      "byteStride": 8,
      "name": "floatBufferViews",
      "target": 34962
    },
    {
      "buffer": 0,
      "byteLength": 4050912,
      "byteOffset": 4783648,
      "byteStride": 12,
      "name": "floatBufferViews",
      "target": 34962
    }
  ],
  "buffers": [
    {
      "byteLength": 8834560,
      "uri": "scene.bin"
    }
  ],
  "extensionsRequired": [
    "KHR_materials_pbrSpecularGlossiness"
  ],
  "extensionsUsed": [
    "KHR_materials_pbrSpecularGlossiness"
  ],
  "images": [
    {
      "uri": "textures/Material_emissive_100.png"
    }
  ],
  "materials": [
    {
      "doubleSided": true,
      "emissiveFactor": [
        0.8683260497814935,
        0.8683260497814935,
        0.8683260497814935
      ],
      "emissiveTexture": {
        "index": 0
      },
      "extensions": {
        "KHR_materials_pbrSpecularGlossiness": {
          "diffuseFactor": [
            1.0,
            1.0,
            1.0,
            1.0
          ],
          "glossinessFactor": 0.0,
          "specularFactor": [
            1.0,
            1.0,
            1.0
          ]
        }
      },
      "name": "Material"
    }
  ],
  "meshes": [
    {
      "name": "Object_0",
      "primitives": [
        {
          "attributes": {
            "NORMAL": 1,
            "POSITION": 0,
            "TEXCOORD_0": 2
          },
          "indices": 3,
          "material": 0,
          "mode": 4
        }
      ]
    },
    {
      "name": "Object_1",
      "primitives": [
        {
          "attributes": {
            "NORMAL": 5,
            "POSITION": 4,
            "TEXCOORD_0": 6
          },
          "indices": 7,
          "material": 0,
          "mode": 4
        }
      ]
    },
    {
      "name": "Object_2",
      "primitives": [
        {
          "attributes": {
            "NORMAL": 9,
            "POSITION": 8,
            "TEXCOORD_0": 10
          },
          "indices": 11,
          "material": 0,
          "mode": 4
        }
      ]
    }
  ],
  "nodes": [
    {
      "children": [
        1
      ],
      "matrix": [
        2.220446049250313e-16,
        6.123234262925839e-17,
        -1.0,
        0.0,
        -1.0,
        3.697785493223493e-32,
        -2.220446049250313e-16,
        0.0,
        1.232595164407831e-32,
        1.0,
        6.123234262925839e-17,
        0.0,
        0.07196787744760513,
        7.174148206020372e-18,
        -0.03230949118733406,
        1.0
      ],
      "name": "Sketchfab_model"
    },
    {
      "children": [
        2
      ],
      "name": "root"
    },
    {
      "children": [
        3
      ],
      "matrix": [
        1.0,
        0.0,
        0.0,
        0.0,
        0.0,
        2.220446049250313e-16,
        1.0,
        0.0,
        0.0,
        -1.0,
        2.220446049250313e-16,
        0.0,
        0.0,
        0.0,
        0.0,
        1.0
      ],
      "name": "GLTF_SceneRootNode"
    },
    {
      "children": [
        4,
        5,
        6
      ],
      "matrix": [
        1.0,
        0.0,
        0.0,
        0.0,
        0.0,
        1.0,
        0.0,
        0.0,
        0.0,
        0.0,
        1.0,
        0.0,
        0.01525425910949707,
        0.0,
        0.0,
        1.0
      ],
      "name": "Crown 01-Stones.combined_1"
    },
    {
      "mesh": 0,
      "name": "Object_4"
    },
    {
      "mesh": 1,
      "name": "Object_5"
    },
    {
      "mesh": 2,
      "name": "Object_6"
    }
  ],
  "samplers": [
    {
      "magFilter": 9729,
      "minFilter": 9987,
      "wrapS": 10497,
      "wrapT": 10497
    }
  ],
  "scene": 0,
  "scenes": [
    {
      "name": "Sketchfab_Scene",
      "nodes": [
        0
      ]
    }
  ],
  "textures": [
    {
      "sampler": 0,
      "source": 0
    }
  ]
}
